# xmcd
#
# Track frame offsets: 
#        150
#        18337
#        38900
#        57637
#        77425
#        98500
#        117200
#        136187
#        158187
#        179437
#        200575
#        220437
#
# Disc length: 3226 seconds
#
# Revision: 7
# Processed by: cddbd v1.5.2PL0 Copyright (c) Steve Scherf et al.
# Submitted via: ExactAudioCopyFreeDBPlugin 1.0
#
DISCID=a00c980c
DTITLE=劉德華 - 在乎你
DYEAR=1996
DGENRE=Pop
TTITLE0=倒轉地球
TTITLE1=一個人睡
TTITLE2=半生愛的女人
TTITLE3=潮水
TTITLE4=推不開
TTITLE5=另一半
TTITLE6=同床
TTITLE7=寂寞(但你不知)
TTITLE8=不能溶化的冰
TTITLE9=絕對在乎您
TTITLE10=擁抱你
TTITLE11=灑
EXTD=
EXTT0=
EXTT1=
EXTT2=
EXTT3=
EXTT4=
EXTT5=
EXTT6=
EXTT7=
EXTT8=
EXTT9=
EXTT10=
EXTT11=
PLAYORDER=
